<?xml version="1.0" standalone="no"?>
<!DOCTYPE svg PUBLIC "-//W3C//DTD SVG 1.1//EN" "http://www.w3.org/Graphics/SVG/1.1/DTD/svg11.dtd" >
<svg xmlns="http://www.w3.org/2000/svg">
<metadata></metadata>
<defs>
<font id="ponsirounded_slabregular" horiz-adv-x="1187" >
<font-face units-per-em="2048" ascent="1536" descent="-512" />
<missing-glyph horiz-adv-x="614" />
<glyph horiz-adv-x="2048" />
<glyph horiz-adv-x="2048" />
<glyph unicode="&#xd;" horiz-adv-x="2048" />
<glyph unicode=" "  horiz-adv-x="614" />
<glyph unicode="&#x09;" horiz-adv-x="614" />
<glyph unicode="&#xa0;" horiz-adv-x="614" />
<glyph unicode="!" horiz-adv-x="354" d="M82 94q0 43 27 73t69 30q40 0 67 -30t27 -73t-27 -72.5t-67 -29.5q-42 0 -69 29.5t-27 72.5zM109 438v967q0 27 19 45t50 18t51.5 -21t20.5 -50v-967q0 -27 -20 -45t-52 -18q-31 0 -50 21t-19 50z" />
<glyph unicode="&#x22;" horiz-adv-x="573" d="M57 1407q-3 31 24 57.5t62 26.5t63 -25t25 -57l-38 -391q-2 -24 -16.5 -39.5t-35.5 -15.5q-20 0 -31.5 15.5t-13.5 39.5zM340 1407q-3 31 24 57.5t62 26.5t63 -25t25 -57l-39 -391q-2 -24 -16 -39.5t-35 -15.5q-20 0 -31.5 15.5t-13.5 39.5z" />
<glyph unicode="#" d="M41 563q0 26 18 45t43 19h236l35 239h-215q-25 0 -43.5 19t-18.5 45t18.5 44.5t43.5 18.5h233l62 420q0 25 18.5 39.5t44.5 11.5t45 -23.5t19 -45.5l-60 -402h248l61 418q0 25 20.5 40.5t45.5 10.5q26 -1 43.5 -21.5t17.5 -45.5l-59 -402h193q25 0 43 -18.5t18 -44.5 t-18 -45t-43 -19h-211l-35 -239h190q25 0 43.5 -19t18.5 -45t-18.5 -44.5t-43.5 -18.5h-209l-65 -457q0 -25 -19 -39.5t-45 -11.5t-44.5 23.5t-18.5 45.5l63 439h-247l-66 -455q0 -25 -20.5 -40.5t-45.5 -10.5q-26 1 -43.5 21.5t-17.5 45.5l63 439h-217q-25 0 -43 18.5 t-18 44.5zM467 627h248l35 239h-248z" />
<glyph unicode="$" d="M82 63q0 26 18 45t43 19h367l2 582q-57 18 -91.5 29.5t-84.5 32t-80 40.5t-64.5 50.5t-53 65t-31.5 82t-13 103.5q0 107 61 195t156.5 137t204.5 55v137q0 26 18.5 45t43.5 19q32 0 53.5 -22t21.5 -50v-139q145 -32 224 -135v53q0 26 19 43.5t46 17.5q26 0 44 -17.5 t18 -43.5v-272q0 -28 -21.5 -49t-50.5 -21q-23 0 -42.5 14.5t-23.5 36.5q-1 3 -2.5 19.5t-4 29.5t-10.5 34t-20 40q-60 93 -176 121l-4 -551q74 -20 115.5 -33.5t98 -39.5t93.5 -58q64 -52 86.5 -114.5t22.5 -155.5q0 -164 -123.5 -281t-294.5 -129v-166q0 -26 -18 -44.5 t-43 -18.5q-32 0 -54 21.5t-22 49.5v158h-115q-70 2 -252 2q-25 0 -43 18.5t-18 44.5zM242 1116q0 -61 20.5 -107t61.5 -76.5t83.5 -49t104.5 -37.5l4 524q-107 -8 -190.5 -79.5t-83.5 -174.5zM647 131q110 19 190.5 89t80.5 173q0 60 -21.5 107t-62.5 78.5t-83.5 51.5 t-101.5 38z" />
<glyph unicode="%" horiz-adv-x="1638" d="M74 1161q0 138 101 235t239 97t237 -100t99 -238q0 -141 -98.5 -240.5t-239.5 -99.5q-143 0 -240.5 101.5t-97.5 244.5zM193 1161q0 -95 63.5 -161t157.5 -66q92 0 155.5 65t63.5 158q0 88 -64.5 152.5t-152.5 64.5q-91 0 -157 -62t-66 -151zM479 63l578 1385 q9 24 34.5 33t51.5 -2q24 -10 34 -34t1 -48l-582 -1385q-10 -25 -34 -32.5t-52 4.5q-24 10 -32.5 33t1.5 46zM899 319q0 138 101 235t239 97q139 0 238.5 -99.5t99.5 -238.5q0 -140 -99 -240t-239 -100q-143 0 -241.5 102t-98.5 244zM1020 319q0 -94 63 -159.5t156 -65.5 q92 0 155.5 64.5t63.5 156.5q0 89 -64 153t-153 64q-90 0 -155.5 -61.5t-65.5 -151.5z" />
<glyph unicode="&#x26;" horiz-adv-x="1474" d="M74 397q0 262 344 434l-29 27q-45 43 -69.5 68.5t-53 65t-41 82t-12.5 93.5q0 141 103.5 237.5t246.5 96.5q137 0 240.5 -95.5t103.5 -231.5q0 -65 -23.5 -120.5t-67.5 -98.5t-90.5 -74.5t-107.5 -61.5l316 -301l186 406h226q25 0 43 -19t18 -45t-18 -44.5t-43 -18.5 h-140l-176 -375l328 -320q17 -17 17 -44t-19 -46q-17 -19 -44.5 -20t-47.5 18l-301 293q-79 -162 -185 -247t-270 -85q-178 0 -306 123.5t-128 302.5zM219 401q0 -123 86.5 -210t212.5 -87q58 0 106 16t81 40t64.5 65.5t51 77.5t45.5 92l-358 344q-60 -26 -106.5 -55 t-90.5 -70t-68 -95t-24 -118zM354 1171q0 -18 2 -34.5t8 -32.5t9.5 -27t16 -27t16.5 -23t21 -24.5t20.5 -21t24.5 -23t24 -22.5l39 -35q38 18 66.5 34t63.5 41.5t57.5 51t38 61t15.5 74.5q0 88 -60.5 148.5t-150.5 60.5q-88 0 -149.5 -56.5t-61.5 -144.5z" />
<glyph unicode="'" horiz-adv-x="286" d="M57 1407q-3 31 24 57.5t62 26.5t63 -25t25 -57l-38 -391q-2 -24 -16.5 -39.5t-35.5 -15.5q-20 0 -31.5 15.5t-13.5 39.5z" />
<glyph unicode="(" horiz-adv-x="737" d="M139 668q0 296 101 546.5t252 366.5q28 14 45 14q33 0 56 -23t23 -56q0 -15 -6.5 -32t-15.5 -24q-150 -131 -222.5 -339t-72.5 -453q0 -106 14 -208t45.5 -210t91.5 -205t144 -168v2q22 -22 22 -57q0 -34 -23.5 -58t-55.5 -24q-13 0 -45 16q-152 116 -252.5 366.5 t-100.5 545.5z" />
<glyph unicode=")" horiz-adv-x="737" d="M139 -178q0 34 23 57v-2q84 71 144 168t91.5 205t45.5 210t14 208q0 245 -72.5 453t-222.5 339q-9 8 -16 24.5t-7 31.5q0 33 23.5 56t56.5 23q17 0 45 -14q151 -116 251.5 -366.5t100.5 -546.5q0 -295 -100 -545.5t-252 -366.5q-32 -16 -45 -16q-32 0 -56 24t-24 58z" />
<glyph unicode="*" horiz-adv-x="761" d="M111 1042q-11 15 -8 40.5t18 35.5l201 76l-201 72q-24 20 -21 51.5t30 52t52 0.5l-2 2l168 -131l-37 209q1 20 19.5 34.5t40.5 14.5q23 0 42.5 -16t18.5 -35l-31 -209l164 133q15 9 38 0t32 -26q10 -17 8 -42.5t-18 -31.5l-199 -80q8 -3 85.5 -32t111.5 -44 q17 -7 21.5 -33t-7.5 -43q-11 -20 -32.5 -27.5t-39.5 5.5l-166 131l33 -213q3 -20 -16 -33.5t-43 -13.5q-19 -2 -39 14t-21 35l33 207q-22 -18 -51 -41t-63.5 -49.5t-49.5 -38.5q-19 -13 -41 -3.5t-30 29.5z" />
<glyph unicode="+" horiz-adv-x="1351" d="M137 737q0 26 18.5 45t43.5 19h401v360q0 25 19 43.5t45 18.5t44.5 -18.5t18.5 -43.5v-360h403q25 0 43.5 -19t18.5 -45t-18.5 -44.5t-43.5 -18.5h-403v-363q0 -25 -18.5 -43t-44.5 -18t-45 18t-19 43v363h-401q-25 0 -43.5 18.5t-18.5 44.5z" />
<glyph unicode="," horiz-adv-x="614" d="M211 94q0 43 27 73t69 30q40 0 67 -30t27 -73v-231q0 -19 -14.5 -33t-34.5 -14t-34.5 14t-14.5 33v129q-41 1 -66.5 30t-25.5 72z" />
<glyph unicode="-" horiz-adv-x="655" d="M61 535q0 27 19.5 47t46.5 20h401q28 0 47 -19.5t19 -47.5t-19 -48t-47 -20h-401q-26 0 -46 20t-20 48z" />
<glyph unicode="." horiz-adv-x="614" d="M211 94q0 43 27 73t69 30q40 0 67 -30t27 -73t-27 -72.5t-67 -29.5q-42 0 -69 29.5t-27 72.5z" />
<glyph unicode="/" d="M88 -336l883 1794q9 22 30 29.5t43 -2.5q22 -9 30 -30.5t-3 -43.5l-881 -1796q-10 -22 -31.5 -29t-43.5 4q-21 10 -28.5 32t1.5 42z" />
<glyph unicode="0" d="M82 508v457q0 113 29.5 201.5t101.5 164.5q74 80 173.5 125t205.5 45q101 0 195 -39t165 -110q82 -80 116 -173t34 -214v-457q0 -113 -29 -202t-100 -167q-74 -79 -174 -123.5t-207 -44.5q-100 0 -194 39.5t-167 110.5q-82 80 -115.5 173t-33.5 214zM227 508 q0 -81 15.5 -142.5t58.5 -117.5q50 -68 127.5 -106t163.5 -38q88 0 168 40t131 110q38 56 51.5 115t13.5 139v455q0 83 -14.5 143.5t-56.5 116.5q-50 68 -128 105.5t-165 37.5t-166.5 -40.5t-130.5 -111.5q-39 -55 -53.5 -114t-14.5 -137v-455z" />
<glyph unicode="1" d="M272 1399q0 26 18.5 44.5t43.5 18.5h309q25 0 43.5 -18.5t18.5 -44.5v-1272h133q25 0 43 -19t18 -45t-18 -44.5t-43 -18.5h-414q-25 0 -43.5 18.5t-18.5 44.5t18.5 45t43.5 19h133v1208h-223q-25 0 -43.5 19t-18.5 45z" />
<glyph unicode="2" d="M88 61v105q0 77 23 142.5t57.5 113t93 93t110.5 76t128 68.5q45 23 76.5 40t78 46t79 55t69 62t58.5 71.5t37 80.5t15 92q0 118 -94.5 188t-238.5 70q-94 0 -167 -39t-112 -113q-32 -69 -80 -69q-34 0 -52.5 21t-18.5 55q0 25 12 49q56 115 168.5 173t265.5 58 q129 0 234 -47.5t168 -140.5t63 -215q0 -80 -28 -150t-76 -124t-110 -102t-130.5 -88.5t-136.5 -78.5t-130 -77.5t-110 -80t-76 -91.5t-28 -107v-70h669v160q0 31 21.5 52t54.5 21q28 0 50 -21.5t22 -51.5v-205q0 -33 -22 -57.5t-50 -24.5h-829q-26 0 -45 18.5t-19 42.5z " />
<glyph unicode="3" d="M147 256q0 32 20.5 54t51.5 22q43 0 64 -35q48 -81 139.5 -137t191.5 -56q131 0 215 89.5t84 209.5q0 122 -77.5 197.5t-233.5 75.5h-78q-25 0 -43 18.5t-18 44.5t18 45t43 19h103q115 0 189.5 81.5t74.5 200.5q0 107 -66 185q-36 46 -95.5 72t-123.5 26 q-192 0 -287 -156q-1 -1 -6.5 -10.5t-7 -11.5t-6.5 -10t-7.5 -10.5t-8 -8.5t-9.5 -8t-9.5 -5t-11.5 -4t-13 -1q-34 0 -53 21.5t-19 54.5q0 25 12 49q56 115 168.5 173t265.5 58q125 0 224 -60t149.5 -151.5t50.5 -193.5q0 -120 -67.5 -216.5t-153.5 -134.5q70 -29 120.5 -71 t76 -90t36.5 -93t11 -92q0 -109 -56.5 -205.5t-159.5 -156.5t-227 -60q-144 0 -265.5 64t-190.5 172q-15 26 -15 45z" />
<glyph unicode="4" d="M31 424q0 24 12 43l668 958q26 37 63 37h80q23 0 40 -18.5t17 -44.5v-922h170q25 0 42.5 -17t17.5 -42t-17.5 -42.5t-42.5 -17.5h-170v-231h138q25 0 43 -19t18 -45t-18 -44.5t-43 -18.5h-414q-25 0 -43.5 18.5t-18.5 44.5t18.5 45t43.5 19h133v231h-672q-26 0 -45.5 20 t-19.5 46zM225 477h543v803z" />
<glyph unicode="5" d="M100 254q0 32 20.5 54t51.5 22q45 0 66 -35q48 -80 140.5 -135.5t194.5 -55.5q159 0 272 107.5t113 261.5q0 72 -27 139.5t-75 118.5t-119 82t-153 31q-176 0 -291 -133q-18 -27 -64 -27q-31 0 -50 23.5t-19 56.5q0 6 14 90q61 377 88 537q12 71 74 71h610q28 0 50 -24.5 t22 -57.5v-143q0 -30 -22 -52t-50 -22q-33 0 -54.5 21.5t-21.5 52.5v98h-467l-77 -458q130 96 280 96q111 0 207 -42.5t159.5 -112.5t99.5 -159t36 -182q0 -213 -155.5 -357.5t-381.5 -144.5q-145 0 -265.5 63t-190.5 171q-15 26 -15 45z" />
<glyph unicode="6" d="M72 477q0 107 29.5 186.5t93.5 174.5l419 616q13 21 41 25t50 -11q23 -15 28.5 -42.5t-8.5 -47.5l-311 -450q82 49 178.5 56t185 -27t162 -96.5t118 -161t44.5 -212.5q0 -105 -40 -200.5t-108.5 -164.5t-164 -110t-201.5 -41q-140 0 -259 69t-188 185.5t-69 251.5z M213 487q0 -156 112.5 -269.5t272.5 -113.5q149 0 257 112t108 269q0 156 -111 267.5t-270 111.5q-153 0 -261 -113t-108 -264z" />
<glyph unicode="7" d="M137 1151v229q0 33 22 57.5t50 24.5h766q31 0 53.5 -22.5t22.5 -53.5q0 -14 -7 -32l-608 -1346q-12 -25 -41 -34.5t-57 3.5q-29 12 -40 40.5t3 54.5l580 1263h-596v-184q0 -31 -21.5 -52.5t-54.5 -21.5q-28 0 -50 22t-22 52z" />
<glyph unicode="8" d="M96 418q0 284 283 397q-106 49 -156.5 138t-50.5 184q0 151 126 257.5t294 106.5t288.5 -105.5t120.5 -258.5q0 -63 -16.5 -119t-65.5 -113t-126 -90q156 -62 227.5 -165.5t71.5 -227.5q0 -122 -73 -227t-188.5 -164.5t-240.5 -59.5q-121 0 -234.5 59t-186.5 163.5 t-73 224.5zM242 424q0 -135 104.5 -227.5t247.5 -92.5q145 0 246.5 95.5t101.5 224.5q0 130 -109.5 223.5t-240.5 93.5q-85 0 -165.5 -41t-132.5 -115t-52 -161zM311 1128q0 -113 83 -186.5t196 -73.5q109 0 190.5 76.5t81.5 183.5t-81 175.5t-189 68.5q-110 0 -195.5 -69 t-85.5 -175z" />
<glyph unicode="9" d="M72 973q0 105 40 200.5t108.5 164.5t164 110t201.5 41q140 0 259 -69t188 -185.5t69 -251.5q0 -107 -29.5 -186t-93.5 -174l-420 -617q-13 -21 -40.5 -25t-49.5 11q-23 15 -28.5 42.5t8.5 47.5l311 450q-82 -49 -178.5 -56t-185 27t-162 96.5t-118 161t-44.5 212.5z M211 975q0 -156 111 -267.5t270 -111.5q153 0 261 113t108 264q0 156 -113 269.5t-273 113.5q-149 0 -256.5 -112t-107.5 -269z" />
<glyph unicode=":" horiz-adv-x="614" d="M225 94q0 43 27.5 73t69.5 30q40 0 67 -30t27 -73t-27 -72.5t-67 -29.5q-42 0 -69.5 29.5t-27.5 72.5zM225 885q0 43 27.5 72.5t69.5 29.5q40 0 67 -29.5t27 -72.5t-27 -73t-67 -30q-42 0 -69.5 30t-27.5 73z" />
<glyph unicode=";" horiz-adv-x="614" d="M225 94q0 43 27.5 73t69.5 30q40 0 67 -30t27 -73v-231q0 -19 -14.5 -33t-34.5 -14t-35 14t-15 33v129q-41 1 -66.5 30t-25.5 72zM225 885q0 43 27.5 72.5t69.5 29.5q40 0 67 -29.5t27 -72.5t-27 -73t-67 -30q-42 0 -69.5 30t-27.5 73z" />
<glyph unicode="&#x3c;" horiz-adv-x="1351" d="M98 731q0 59 56 84l989 447q4 2 13.5 6t14 5.5t12.5 4t13.5 3t13 -0.5t15.5 -4q45 -18 45 -64q0 -42 -37 -61l-957 -420l957 -420q37 -19 37 -61q0 -46 -45 -64q-9 -3 -17 -4t-17.5 1t-14.5 4t-17 7t-16 7l-989 446q-56 25 -56 84z" />
<glyph unicode="=" horiz-adv-x="1351" d="M137 580q0 26 18.5 44.5t43.5 18.5h931q25 0 43.5 -18.5t18.5 -44.5t-18.5 -45t-43.5 -19h-931q-25 0 -43.5 19t-18.5 45zM137 885q0 26 18.5 44.5t43.5 18.5h931q25 0 43.5 -18.5t18.5 -44.5t-18.5 -45t-43.5 -19h-931q-25 0 -43.5 19t-18.5 45z" />
<glyph unicode="&#x3e;" horiz-adv-x="1351" d="M98 250q0 42 37 61l957 420l-957 420q-37 19 -37 61q0 46 45 64q9 3 17 4.5t18 -1t13.5 -3.5t17.5 -7t16 -7l989 -447q56 -25 56 -84t-56 -84l-989 -446q-4 -2 -16 -7t-17 -7t-14.5 -4t-17.5 -1t-17 4q-45 18 -45 64z" />
<glyph unicode="?" horiz-adv-x="1105" d="M96 1167q0 43 28.5 98.5t80 109t138 90t187.5 36.5q193 0 325 -115t132 -309q0 -79 -21.5 -141t-55.5 -100t-75.5 -69t-82.5 -57t-75 -54.5t-55.5 -71t-21.5 -97.5v-43q0 -38 -22.5 -58.5t-51.5 -20.5q-32 0 -54.5 25.5t-22.5 60.5v77q0 59 21.5 107t56 81t76 62.5 t83.5 58t76.5 60t56 76t21.5 98.5q0 72 -27.5 130t-72.5 92.5t-99.5 52.5t-112.5 18q-104 0 -173.5 -49t-106.5 -123v-29q0 -27 -20.5 -48.5t-49.5 -24.5q-33 -2 -57.5 17t-24.5 60zM432 94q0 43 27 73t69 30q40 0 67.5 -30t27.5 -73t-27.5 -72.5t-67.5 -29.5 q-42 0 -69 29.5t-27 72.5z" />
<glyph unicode="@" horiz-adv-x="1785" d="M115 635v18q-1 171 66.5 315.5t180 239t256 147t297.5 52.5q177 0 311.5 -44t213.5 -133.5t82 -213.5l2 -217v-439h112q25 0 43.5 -16.5t18.5 -42.5q0 -29 -18.5 -48.5t-43.5 -19.5h-186q-32 0 -49 24t-17 65q-53 -60 -138.5 -91.5t-162.5 -31.5q-176 0 -291.5 104 t-115.5 272q0 167 116.5 270.5t288.5 100.5h305q0 58 -10.5 103.5t-40.5 89t-80 72t-132.5 46t-194.5 17.5q-184 0 -336 -81t-240.5 -226t-89.5 -324q0 -135 52 -255t138 -203t199 -131t234 -48h608q26 0 42.5 -17.5t16.5 -45.5t-16.5 -46t-42.5 -18q-6 0 -191 -1t-444 -1 q-152 -7 -291 53.5t-237 165t-156.5 246t-58.5 293.5zM817 586q0 -120 78.5 -188t202.5 -68q125 0 205.5 65t80.5 187v243h-282q-126 0 -205.5 -59.5t-79.5 -179.5z" />
<glyph unicode="A" horiz-adv-x="1550" d="M8 63q0 26 16.5 45t38.5 19h127l474 1208h-127q-22 0 -39 19t-17 45t17 44.5t39 18.5h282q34 -3 49 -47l492 -1288h127q22 0 38.5 -19t16.5 -45t-16.5 -44.5t-38.5 -18.5h-199q-35 0 -53 45l-156 426h-610l-160 -426q-22 -45 -53 -45h-193q-22 0 -38.5 18.5t-16.5 44.5z M514 592h522l-215 582q-17 48 -45 139q-11 -46 -45 -139z" />
<glyph unicode="B" horiz-adv-x="1232" d="M41 63q0 26 18 45t43 19h134v1208h-134q-25 0 -43 19t-18 45t18 44.5t43 18.5h662q184 0 289.5 -105t105.5 -263q0 -120 -67.5 -216.5t-153.5 -134.5q244 -117 244 -346q0 -169 -112.5 -283t-299.5 -114h-668q-25 0 -43 18.5t-18 44.5zM383 127h412q98 0 168.5 80.5 t70.5 195.5q0 122 -77.5 197.5t-233.5 75.5h-195q-25 0 -43 18.5t-18 44.5t18 45t43 19h220q115 0 189.5 81.5t74.5 200.5q0 107 -65 178.5t-163 71.5h-401v-1208z" />
<glyph unicode="C" horiz-adv-x="1445" d="M45 739q0 127 38 244t108 210.5t163 163t208 107t239 37.5q125 0 250.5 -40t218.5 -132v78q0 26 19 43.5t46 17.5q26 0 44 -17.5t18 -43.5v-272q0 -28 -21.5 -49t-50.5 -21q-23 0 -41.5 14.5t-23.5 36.5q-22 67 -82 117q-72 60 -173 95.5t-206 35.5q-157 0 -295 -81.5 t-222 -222.5t-89 -308q0 -134 48.5 -252t130.5 -199t192 -127.5t231 -46.5h551q26 0 42.5 -18t16.5 -46t-16.5 -45.5t-42.5 -17.5q-6 0 -162.5 -1t-415.5 -1q-152 -7 -288 52t-230.5 161.5t-149.5 240.5t-55 287z" />
<glyph unicode="D" horiz-adv-x="1476" d="M41 63q0 26 18 45t43 19h134v1208h-134q-25 0 -43 19t-18 45t18 44.5t43 18.5h596q163 0 286 -44.5t235 -153.5q106 -104 161.5 -244t55.5 -293q0 -144 -54.5 -279t-154.5 -241q-108 -114 -234.5 -160.5t-294.5 -46.5h-596q-25 0 -43 18.5t-18 44.5zM383 127h287 q141 0 249 38.5t197 133.5q81 86 126.5 196.5t45.5 225.5q0 127 -48 251t-136 208q-93 88 -191.5 121.5t-236.5 33.5h-293v-1208z" />
<glyph unicode="E" horiz-adv-x="1228" d="M41 63q0 26 18 45t43 19h134v1208h-134q-25 0 -43 19t-18 45t18 44.5t43 18.5h988q28 0 49.5 -24.5t21.5 -57.5v-229q0 -30 -21.5 -52t-49.5 -22q-33 0 -54.5 21.5t-21.5 52.5v184h-631v-532h559q25 0 43.5 -19t18.5 -45t-18.5 -44.5t-43.5 -18.5h-559v-549h631v184 q0 31 21.5 52.5t54.5 21.5q28 0 49.5 -22t21.5 -52v-229q0 -33 -21.5 -57.5t-49.5 -24.5h-988q-25 0 -43 18.5t-18 44.5z" />
<glyph unicode="F" horiz-adv-x="1222" d="M41 63q0 26 18 45t43 19h134v1208h-134q-25 0 -43 19t-18 45t18 44.5t43 18.5h988q28 0 49.5 -24.5t21.5 -57.5v-229q0 -30 -21.5 -52t-49.5 -22q-33 0 -54.5 21.5t-21.5 52.5v184h-631v-532h559q25 0 43.5 -19t18.5 -45t-18.5 -44.5t-43.5 -18.5h-559v-549h133 q25 0 43.5 -19t18.5 -45t-18.5 -44.5t-43.5 -18.5h-414q-25 0 -43 18.5t-18 44.5z" />
<glyph unicode="G" horiz-adv-x="1560" d="M41 739q0 211 102 386.5t276 275.5t380 100q125 0 251.5 -40t219.5 -132v78q0 26 19 43.5t46 17.5q26 0 44 -17.5t18 -43.5v-272q0 -28 -21.5 -49t-50.5 -21q-23 0 -41.5 14.5t-23.5 36.5l-2 6q-1 5 -3 11.5t-5.5 16t-9.5 19.5t-14 21t-19.5 23t-24.5 22 q-161 133 -385 133q-157 0 -295.5 -82.5t-223.5 -224.5t-90 -309q0 -139 49.5 -261.5t131.5 -206t191.5 -132t227.5 -48.5q91 0 181.5 31t159.5 80t120.5 103.5t77.5 105.5v205h-590q-25 0 -43 18.5t-18 44.5t18 45t43 19h666q28 0 50 -24.5t22 -57.5v-606q0 -30 -22 -52 t-50 -22q-33 0 -54.5 21.5t-21.5 52.5v133q-81 -91 -222.5 -160.5t-316.5 -69.5q-158 0 -297.5 61t-237.5 165t-155 245t-57 297z" />
<glyph unicode="H" horiz-adv-x="1542" d="M41 63q0 26 18 45t43 19h134v1208h-134q-25 0 -43 19t-18 45t18 44.5t43 18.5h222q25 0 43 -18.5t18 -44.5q0 -3 -0.5 -64t-1 -200t-0.5 -332h776v596q0 26 18.5 44.5t43.5 18.5h219q25 0 43 -18.5t18 -44.5t-18 -45t-43 -19h-133v-1208h133q25 0 43 -19t18 -45 t-18 -44.5t-43 -18.5h-219q-25 0 -43.5 18.5t-18.5 44.5v613h-776v-613q0 -26 -18 -44.5t-43 -18.5h-220q-25 0 -43 18.5t-18 44.5z" />
<glyph unicode="I" horiz-adv-x="618" d="M41 63q0 26 18 45t43 19h134v1208h-134q-25 0 -43 19t-18 45t18 44.5t43 18.5h414q25 0 43.5 -18.5t18.5 -44.5t-18.5 -45t-43.5 -19h-133v-1208h133q25 0 43.5 -19t18.5 -45t-18.5 -44.5t-43.5 -18.5h-414q-25 0 -43 18.5t-18 44.5z" />
<glyph unicode="J" horiz-adv-x="1040" d="M-12 215q0 32 20 54t51 22q41 0 62 -31q103 -156 250 -156q146 0 226.5 92t80.5 250v889h-133q-25 0 -43.5 19t-18.5 45t18.5 44.5t43.5 18.5h413q25 0 43.5 -18.5t18.5 -44.5t-18.5 -45t-43.5 -19h-133v-884q0 -210 -124 -345t-330 -135q-225 0 -371 203q-12 18 -12 41z " />
<glyph unicode="K" horiz-adv-x="1347" d="M41 63q0 26 18 45t43 19h134v1208h-134q-25 0 -43 19t-18 45t18 44.5t43 18.5h414q25 0 43.5 -18.5t18.5 -44.5t-18.5 -45t-43.5 -19h-133v-532h182l355 612q29 47 73 47h162q24 0 41.5 -20t17.5 -49q0 -23 -18 -40.5t-41 -17.5h-94l-307 -532q42 0 63 -33l330 -643h129 q25 0 43 -19t18 -45t-18 -44.5t-43 -18.5h-119q-90 0 -111.5 9.5t-48.5 64.5l-256 516q-31 62 -45 74t-59 12h-254v-549h133q25 0 43.5 -19t18.5 -45t-18.5 -44.5t-43.5 -18.5h-414q-25 0 -43 18.5t-18 44.5z" />
<glyph unicode="L" horiz-adv-x="1112" d="M41 63q0 26 18 45t43 19h134v1208h-134q-25 0 -43 19t-18 45t18 44.5t43 18.5h220q25 0 43 -18.5t18 -44.5v-1272h561v184q0 31 21.5 52.5t54.5 21.5q28 0 50 -22t22 -52v-229q0 -33 -22 -57.5t-50 -24.5h-918q-25 0 -43 18.5t-18 44.5z" />
<glyph unicode="M" horiz-adv-x="1992" d="M41 63q0 26 18 45t43 19h134v1208h-134q-25 0 -43 19t-18 45t18 44.5t43 18.5h328q18 0 34.5 -11.5t22.5 -27.5l508 -1202l516 1204q19 37 56 37h323q25 0 43.5 -18.5t18.5 -44.5t-18.5 -45t-43.5 -19h-133v-1208h133q25 0 43.5 -19t18.5 -45t-18.5 -44.5t-43.5 -18.5 h-219q-25 0 -43 18.5t-18 44.5v1231l-543 -1259q-23 -47 -74 -47q-55 0 -73 47l-537 1259v-1231q0 -26 -18 -44.5t-43 -18.5h-220q-25 0 -43 18.5t-18 44.5z" />
<glyph unicode="N" horiz-adv-x="1509" d="M41 63q0 26 18 45t43 19h134v1208h-134q-25 0 -43 19t-18 45t18 44.5t43 18.5h265q33 0 49 -26l710 -1180v1143q0 26 18.5 44.5t43.5 18.5h219q25 0 43 -18.5t18 -44.5t-18 -45t-43 -19h-133v-1272q0 -26 -18.5 -44.5t-43.5 -18.5h-59q-34 0 -61 45l-709 1167v-1149 q0 -26 -18 -44.5t-43 -18.5h-220q-25 0 -43 18.5t-18 44.5z" />
<glyph unicode="O" horiz-adv-x="1595" d="M41 735q0 210 101.5 386t276 278t382.5 102q152 0 291.5 -60t240.5 -161.5t161 -241.5t60 -293q0 -210 -99.5 -388t-273 -282t-380.5 -104q-155 0 -295.5 60t-242.5 162.5t-162 244t-60 297.5zM188 739q0 -127 48 -243.5t129.5 -202t195 -136.5t238.5 -51q166 1 306 87.5 t221 231.5t81 314q0 124 -48 239t-128.5 200t-193.5 135.5t-236 50.5q-167 0 -308.5 -85t-223 -228.5t-81.5 -311.5z" />
<glyph unicode="P" horiz-adv-x="1171" d="M41 70q0 25 18 44t43 19h117v1196h-115q-25 0 -43 18.5t-18 43.5q0 29 18 50t43 21h529q176 0 293 -63q101 -54 158 -157t57 -218q0 -87 -31 -166.5t-87.5 -142t-144 -100t-192.5 -37.5h-166q-29 0 -50 19.5t-21 47.5q0 31 20.5 50.5t50.5 19.5h144q69 0 105 9t75 32 q70 40 109.5 109t39.5 155q0 75 -37 143.5t-102 110.5q-50 31 -96 45t-125 14l-262 -2v-1198h118q25 0 43.5 -19t18.5 -44q0 -29 -18.5 -49.5t-43.5 -20.5h-387q-25 0 -43 20.5t-18 49.5z" />
<glyph unicode="Q" horiz-adv-x="1611" d="M41 735q0 210 101.5 386t276 278t382.5 102q152 0 291.5 -60t240.5 -161.5t161 -241.5t60 -293q0 -162 -61 -306.5t-170 -252.5q71 -51 154 -51h151q27 0 46 -21.5t18 -50.5q2 -26 -18.5 -45t-49.5 -18h-154q-158 0 -262 94q-185 -123 -407 -123q-155 0 -295.5 60 t-242.5 162.5t-162 244t-60 297.5zM188 739q0 -127 48 -243.5t129.5 -202t195 -136.5t238.5 -51q185 0 336 107q-29 49 -76 149q-119 247 -385 250h-178q-26 -1 -45 19t-19 47q-3 24 18 43.5t48 19.5h178q182 0 305.5 -82.5t192.5 -218.5q38 -85 67 -133q166 187 166 432 q0 124 -48 239t-128.5 200t-193.5 135.5t-236 50.5q-167 0 -308.5 -85t-223 -228.5t-81.5 -311.5z" />
<glyph unicode="R" horiz-adv-x="1310" d="M41 63q0 26 18 45t43 19h134v1208h-134q-25 0 -43 19t-18 45t18 44.5t43 18.5h664q184 0 289.5 -105t105.5 -263q0 -97 -39 -183t-118 -148t-185 -77l277 -559h123q25 0 43 -19t18 -45t-18 -44.5t-43 -18.5h-113q-90 0 -111.5 9.5t-48.5 64.5l-239 516q-31 62 -45.5 74 t-59.5 12h-72q-25 0 -43 18.5t-18 44.5t18 45t43 19h238q118 7 182 84t64 198q0 107 -65 178.5t-163 71.5h-403v-1272q0 -26 -18 -44.5t-43 -18.5h-220q-25 0 -43 18.5t-18 44.5z" />
<glyph unicode="S" horiz-adv-x="1089" d="M47 63q0 26 18.5 45t43.5 19h446q78 0 152 31t125 93.5t51 141.5q0 32 -7 60t-17 50.5t-28.5 43t-35 35t-44 29.5t-47 24t-53 20.5t-52.5 17.5t-55 16.5t-52 15.5q-50 15 -74 23t-69.5 24t-69 28t-60 32.5t-56 39.5t-43.5 47.5t-36 59t-20.5 69.5t-8.5 84q0 85 38 159 t101 123.5t143.5 78t164.5 28.5q125 0 207.5 -45.5t124.5 -101.5v53q0 26 19 43.5t46 17.5q26 0 44 -17.5t18 -43.5v-272q0 -28 -21.5 -49t-50.5 -21q-23 0 -42.5 14.5t-23.5 36.5q-1 3 -2.5 19.5t-4 29.5t-10.5 34t-20 40q-83 133 -286 133q-112 0 -204.5 -73t-92.5 -183 q0 -57 20 -101t49.5 -72t78 -50.5t91.5 -36t104 -30.5q9 -2 13 -3q7 -2 62 -17t69.5 -19t58.5 -19t65.5 -25.5t51.5 -28t52 -36.5q64 -53 88 -115.5t24 -154.5q0 -115 -63.5 -210.5t-168 -148.5t-223.5 -53q-35 0 -113 1t-102 1q-70 2 -251 2q-25 0 -43.5 18.5t-18.5 44.5z " />
<glyph unicode="T" horiz-adv-x="1185" d="M35 1151v229q0 33 21.5 57.5t49.5 24.5h973q28 0 50 -24.5t22 -57.5v-229q0 -30 -22 -52t-50 -22q-33 0 -54 21.5t-21 52.5v184h-340v-1208h133q25 0 43 -19t18 -45t-18 -44.5t-43 -18.5h-414q-25 0 -43 18.5t-18 44.5t18 45t43 19h133v1208h-334v-184q0 -31 -21.5 -52.5 t-54.5 -21.5q-28 0 -49.5 22t-21.5 52z" />
<glyph unicode="U" horiz-adv-x="1404" d="M31 1399q0 26 18 44.5t43 18.5h219q25 0 43.5 -18.5t18.5 -44.5v-938q0 -152 95.5 -254.5t231.5 -102.5q137 0 234.5 102.5t97.5 254.5v938q0 26 18.5 44.5t43.5 18.5h219q25 0 43 -18.5t18 -44.5t-18 -45t-43 -19h-133v-882q0 -142 -65.5 -253.5t-174.5 -171t-240 -59.5 t-239 59.5t-172 171t-64 253.5v882h-133q-25 0 -43 19t-18 45z" />
<glyph unicode="V" horiz-adv-x="1503" d="M-10 1399q0 26 17 44.5t40 18.5h205q18 0 33.5 -11.5t21.5 -27.5l449 -1194l454 1196q6 16 21 26.5t33 10.5h192q23 0 40 -18.5t17 -44.5t-17 -45t-40 -19h-121l-508 -1300q-8 -17 -27.5 -32t-47.5 -15q-30 0 -51 15t-27 32l-494 1300h-133q-23 0 -40 19t-17 45z" />
<glyph unicode="W" horiz-adv-x="2080" d="M0 1399q0 26 17 44.5t40 18.5h193q18 0 33.5 -11.5t21.5 -27.5l338 -1198l330 1110h-105q-23 0 -40 19t-17 45t17 44.5t40 18.5h359q23 0 40 -18.5t17 -44.5t-17 -45t-40 -19h-109l328 -1108l334 1196q6 16 21.5 27.5t33.5 11.5h188q23 0 40.5 -18.5t17.5 -44.5 t-17.5 -45t-40.5 -19h-125q-43 -157 -169 -606t-191 -688q-6 -22 -29.5 -37.5t-56.5 -15.5q-39 0 -63 15.5t-31 37.5l-311 1065l-318 -1065q-6 -22 -29.5 -37.5t-56.5 -15.5q-39 0 -62 15.5t-30 37.5l-375 1294h-119q-23 0 -40 19t-17 45z" />
<glyph unicode="X" horiz-adv-x="1513" d="M33 63q0 26 17 45t40 19h133l445 625l-420 583h-119q-23 0 -40 19t-17 45t17 44.5t40 18.5h190q26 0 56 -39l387 -565l383 567q25 37 53 37h186q23 0 40.5 -18.5t17.5 -44.5t-17.5 -45t-40.5 -19h-112l-418 -583l449 -625h120q23 0 40.5 -19t17.5 -45t-17.5 -44.5 t-40.5 -18.5h-190q-25 0 -55 39l-416 604l-418 -606q-10 -13 -15 -18.5t-15.5 -12t-22.5 -6.5h-201q-23 0 -40 18.5t-17 44.5z" />
<glyph unicode="Y" horiz-adv-x="1372" d="M0 1399q0 26 17 44.5t40 18.5h174q26 0 56 -39l411 -794l392 796q25 37 53 37h172q23 0 40 -18.5t17 -44.5t-17 -45t-40 -19h-119l-424 -843v-365h133q25 0 43.5 -19t18.5 -45t-18.5 -44.5t-43.5 -18.5h-413q-25 0 -43.5 18.5t-18.5 44.5t18.5 45t43.5 19h133v365 l-449 843h-119q-23 0 -40 19t-17 45z" />
<glyph unicode="Z" horiz-adv-x="1075" d="M31 76q0 20 8 33l772 1226h-592v-184q0 -31 -21.5 -52.5t-54.5 -21.5q-28 0 -49.5 22t-21.5 52v229q0 33 21.5 57.5t49.5 24.5h781q31 0 53 -22.5t22 -53.5q0 -19 -8 -32l-772 -1227h668v184q0 31 21.5 52.5t54.5 21.5q28 0 49.5 -22t21.5 -52v-229q0 -33 -21.5 -57.5 t-49.5 -24.5h-857q-31 0 -53 22.5t-22 53.5z" />
<glyph unicode="[" horiz-adv-x="614" d="M72 -156v1583q0 26 18 45t43 19h352q26 0 44 -16t18 -41q0 -26 -18.5 -47t-43.5 -21h-264v-1456h250q25 0 43 -20t18 -46t-18 -44.5t-43 -18.5h-338q-25 0 -43 18.5t-18 44.5z" />
<glyph unicode="\" d="M193 1397q-9 24 0.5 48t33.5 34q26 11 51.5 2t34.5 -33l578 -1385q10 -23 1.5 -46t-32.5 -33q-28 -12 -52 -4.5t-34 32.5z" />
<glyph unicode="]" horiz-adv-x="614" d="M68 1434q0 26 17.5 41.5t43.5 15.5h352q25 0 43.5 -19t18.5 -45v-1583q0 -26 -18.5 -44.5t-43.5 -18.5h-338q-25 0 -43 18.5t-18 44.5t18 46t43 20h250v1456h-264q-24 0 -42.5 20.5t-18.5 47.5z" />
<glyph unicode="^" horiz-adv-x="1351" d="M109 406q0 14 8 34l465 1008q25 55 92 55t92 -55l465 -1008q8 -20 8 -34q0 -35 -25.5 -61t-60.5 -26q-54 0 -76 46l-403 899l-404 -899q-22 -46 -75 -46q-35 0 -60.5 26t-25.5 61z" />
<glyph unicode="_" horiz-adv-x="1024" d="M0 -154h1024v-102h-1024v102z" />
<glyph unicode="`" horiz-adv-x="860" d="M162 1581q15 23 39 30t47 -5l418 -242q21 -12 26 -36t-6 -44q-14 -21 -35.5 -26.5t-44.5 6.5l-422 231q-23 12 -29 38.5t7 47.5z" />
<glyph unicode="a" horiz-adv-x="1390" d="M47 532q0 111 41 213.5t113.5 179.5t178 123t226.5 46q287 0 438 -254v188q0 26 20 46t48 20t48 -20t20 -46v-901h133q25 0 43 -19t18 -45t-18 -44.5t-43 -18.5h-207q-26 0 -44 18t-18 43v162q-61 -111 -175.5 -181.5t-262.5 -70.5q-157 0 -285.5 74.5t-201 203 t-72.5 283.5zM186 532q0 -118 59 -217t155 -155t206 -56q188 0 314.5 124.5t126.5 308.5q0 177 -126 301.5t-303 124.5q-114 0 -213.5 -56t-159 -156t-59.5 -219z" />
<glyph unicode="b" horiz-adv-x="1390" d="M16 63q0 26 18.5 45t43.5 19h133v1208h-133q-25 0 -43.5 19t-18.5 45t18.5 44.5t43.5 18.5h192q32 0 54 -21.5t22 -49.5v-551q151 254 430 254q119 0 224 -46t177.5 -123t115 -179.5t42.5 -213.5q0 -155 -72.5 -283.5t-201 -203t-285.5 -74.5q-147 0 -258 70t-172 182 v-162q0 -25 -17.5 -43t-43.5 -18h-207q-25 0 -43.5 18.5t-18.5 44.5zM340 537q0 -181 126.5 -306t303.5 -125q178 0 304 123t126 303q0 119 -60 219t-157.5 156t-208.5 56q-178 0 -306 -125t-128 -301z" />
<glyph unicode="c" horiz-adv-x="1163" d="M47 537q0 144 73 272t202 206.5t280 78.5q219 0 365 -123q127 -109 127 -170q0 -35 -23.5 -55.5t-54.5 -20.5q-36 0 -59.5 27.5t-20.5 60.5q2 0 -12 15.5t-41 37.5t-63.5 44t-91 37.5t-112.5 15.5q-181 0 -307.5 -126.5t-126.5 -306.5t125.5 -293.5t315.5 -113.5 q430 4 438 4q25 0 43 -19t18 -45t-18 -44.5t-43 -18.5q-15 0 -445 -4q-154 0 -284.5 69.5t-207.5 194.5t-77 277z" />
<glyph unicode="d" horiz-adv-x="1388" d="M47 532q0 111 41.5 213.5t114 179.5t178.5 123t227 46q283 0 434 -254v495h-133q-25 0 -43 19t-18 45t18 44.5t43 18.5h193q32 0 54 -21.5t22 -49.5v-1264h133q25 0 43 -19t18 -45t-18 -44.5t-43 -18.5h-193q-32 0 -54 22t-22 50v151q-61 -111 -173.5 -181.5 t-260.5 -70.5q-145 0 -274 74t-208 204.5t-79 282.5zM184 532q0 -180 127 -304t305 -124q187 0 307.5 124t120.5 309q0 177 -125.5 301.5t-302.5 124.5q-114 0 -213.5 -56t-159 -156t-59.5 -219z" />
<glyph unicode="e" horiz-adv-x="1185" d="M47 537q0 145 72 272.5t203.5 206t291.5 78.5t289.5 -80.5t202.5 -206.5q17 -32 8.5 -56.5t-35.5 -37.5l-815 -422q120 -168 361 -168q392 0 437 4h1q25 0 43 -19t18 -45t-18 -44.5t-43 -18.5q-15 0 -445 -4q-115 -1 -220 40t-182.5 112.5t-123 173t-45.5 215.5zM182 537 q0 -82 27 -140l749 387q-47 70 -138.5 123.5t-207.5 53.5q-179 0 -304.5 -123.5t-125.5 -300.5z" />
<glyph unicode="f" horiz-adv-x="614" d="M16 63q0 26 18.5 45t43.5 19h135v821h-135q-25 0 -43.5 19t-18.5 45t18.5 44.5t43.5 18.5h133v41q0 116 28 184.5t83 114.5q40 34 97.5 57t112.5 23q111 0 111 -86q0 -30 -24 -53t-54 -23q-44 0 -67 33q-85 -30 -117.5 -86t-32.5 -162v-43h150q25 0 43 -18.5t18 -44.5 t-18 -45t-43 -19h-150v-887q0 -25 -17.5 -43t-43.5 -18h-209q-25 0 -43.5 18.5t-18.5 44.5z" />
<glyph unicode="g" horiz-adv-x="1398" d="M47 532q0 155 72.5 283.5t201 203.5t285.5 75q148 0 259.5 -69.5t172.5 -180.5v170q0 25 18 43t44 18h207q25 0 43 -18.5t18 -44.5t-18 -45t-43 -19h-133v-862q0 -151 -73.5 -263.5t-197.5 -169t-280 -56.5q-369 3 -409 4h-1q-25 0 -43 18.5t-18 44.5t18 45t43 19l422 -4 q176 0 289.5 94t113.5 268v141q-152 -256 -432 -256q-161 0 -290.5 78t-199 205.5t-69.5 277.5zM186 532q0 -180 128 -304t304 -124q177 0 303 123.5t126 300.5q0 184 -126.5 309.5t-314.5 125.5q-82 0 -159 -33.5t-134.5 -90.5t-92 -137.5t-34.5 -169.5z" />
<glyph unicode="h" horiz-adv-x="1320" d="M16 63q0 26 18.5 45t43.5 19h133v1208h-133q-25 0 -43.5 19t-18.5 45t18.5 44.5t43.5 18.5h192q32 0 54 -21.5t22 -49.5v-517q55 103 148 161.5t208 58.5q192 0 322 -152q64 -75 82 -159t18 -210v-446h123q26 0 46 -21t20 -47q0 -23 -20 -41t-46 -18h-186q-30 0 -51 21 t-21 53v444v37v39.5t-1 35.5t-2.5 39t-5 35t-8.5 37.5t-12.5 33t-17.5 34.5q-41 72 -113.5 113t-154.5 41q-151 0 -244 -107q-56 -64 -70 -128.5t-14 -172.5v-428h133q25 0 43.5 -19t18.5 -45t-18.5 -44.5t-43.5 -18.5h-401q-25 0 -43.5 18.5t-18.5 44.5z" />
<glyph unicode="i" horiz-adv-x="565" d="M25 63q0 26 18 45t43 19h137v821h-137q-25 0 -43 19t-18 45t18 44.5t43 18.5h197q32 0 53.5 -21.5t21.5 -49.5v-877h129q25 0 43.5 -19t18.5 -45t-18.5 -44.5t-43.5 -18.5h-401q-25 0 -43 18.5t-18 44.5zM190 1376q0 42 27 70.5t68 28.5t67.5 -28.5t26.5 -70.5t-26.5 -70 t-67.5 -28t-68 28t-27 70z" />
<glyph unicode="j" horiz-adv-x="528" d="M-76 -326q0 30 24 53t54 23q45 0 68 -33q85 30 117 85.5t32 162.5v983h-137q-25 0 -43.5 19t-18.5 45t18.5 44.5t43.5 18.5h197q32 0 53.5 -21.5t21.5 -49.5v-1037q0 -117 -27 -185t-81 -114q-40 -34 -98 -57t-113 -23q-111 0 -111 86zM186 1376q0 42 27 70.5t68 28.5 t67.5 -28.5t26.5 -70.5t-26.5 -70t-67.5 -28t-68 28t-27 70z" />
<glyph unicode="k" horiz-adv-x="1200" d="M20 63q0 26 18.5 45t43.5 19h133v1208h-133q-25 0 -43.5 19t-18.5 45t18.5 44.5t43.5 18.5h192q32 0 54 -21.5t22 -49.5v-721h238l213 334q29 43 53 57t74 14h73q27 0 46.5 -17.5t19.5 -41.5q0 -26 -20 -47t-46 -21h-75l-191 -299q-21 -31 -57 -31q34 0 53 -32l273 -459 h112q25 0 44.5 -21t19.5 -47q0 -23 -19.5 -41t-44.5 -18h-110q-50 0 -75 14t-50 54l-279 475h-252v-416h133q25 0 43.5 -19t18.5 -45t-18.5 -44.5t-43.5 -18.5h-401q-25 0 -43.5 18.5t-18.5 44.5z" />
<glyph unicode="l" horiz-adv-x="546" d="M2 1399q0 26 18 44.5t43 18.5h193q32 0 54 -21.5t22 -49.5v-1264h133q25 0 43 -19t18 -45t-18 -44.5t-43 -18.5h-193q-32 0 -53.5 22t-21.5 50v1263h-134q-25 0 -43 19t-18 45z" />
<glyph unicode="m" horiz-adv-x="1980" d="M25 63q0 26 18 45t43 19h133v821h-133q-25 0 -43 19t-18 45t18 44.5t43 18.5h188q32 0 54 -21.5t22 -49.5l2 -109q49 93 131 146t191 53q257 0 344 -246q44 111 144.5 178.5t217.5 67.5q198 0 300 -123.5t102 -345.5v-498h123q26 0 45.5 -20.5t19.5 -47.5 q0 -23 -19.5 -41t-45.5 -18h-187q-30 0 -50.5 21t-20.5 53v544q0 169 -75.5 257t-205.5 88q-128 0 -212.5 -87t-84.5 -229v-520h123q26 0 45.5 -20.5t19.5 -47.5q0 -23 -19.5 -41t-45.5 -18h-186q-30 0 -51 21t-21 53v544q0 170 -74.5 257.5t-210.5 87.5q-213 0 -274 -211 q-21 -77 -21 -201v-424h133q25 0 43.5 -19t18.5 -45t-18.5 -44.5t-43.5 -18.5h-401q-25 0 -43 18.5t-18 44.5z" />
<glyph unicode="n" horiz-adv-x="1329" d="M25 63q0 26 18 45t43 19h133v821h-133q-25 0 -43 19t-18 45t18 44.5t43 18.5h193q32 0 53.5 -21.5t21.5 -49.5v-121q54 101 147 156t210 55q197 0 319 -142q64 -75 82 -158.5t18 -209.5v-457h123q26 0 46 -21t20 -47q0 -23 -20 -41t-46 -18h-186q-30 0 -51 21t-21 53v461 v37v39t-1 35.5t-2.5 39t-5 34.5t-8.5 37.5t-12.5 33t-17.5 34.5q-40 69 -109 103.5t-155 34.5q-156 0 -246 -103q-56 -64 -70 -127t-14 -170v-436h133q25 0 43.5 -19t18.5 -45t-18.5 -44.5t-43.5 -18.5h-401q-25 0 -43 18.5t-18 44.5z" />
<glyph unicode="o" horiz-adv-x="1228" d="M47 530q0 154 76 284t206.5 205t284.5 75q150 0 279 -74.5t205 -202t76 -276.5q0 -116 -44 -221t-119.5 -181.5t-180 -122t-220.5 -45.5q-153 0 -282.5 75t-205 204t-75.5 280zM182 535q0 -115 56.5 -214t155.5 -158t216 -59q178 0 303 125.5t125 302.5 q0 176 -124.5 302.5t-301.5 126.5q-179 0 -304.5 -124.5t-125.5 -301.5z" />
<glyph unicode="p" horiz-adv-x="1390" d="M10 -336q0 26 18.5 45t43.5 19h133v1220h-133q-25 0 -43.5 19t-18.5 45t18.5 44.5t43.5 18.5h192q32 0 54 -21.5t22 -49.5v-168q63 115 174.5 186.5t269.5 71.5q110 0 210.5 -41.5t175.5 -113t120 -175.5t45 -223q0 -115 -44.5 -220.5t-119.5 -182t-178 -122t-215 -45.5 q-133 0 -251.5 66t-186.5 190v-499h133q25 0 43.5 -19t18.5 -45t-18.5 -44.5t-43.5 -18.5h-401q-25 0 -43.5 18.5t-18.5 44.5zM332 539q0 -179 126.5 -307t311.5 -128q181 0 305.5 125t124.5 303q0 125 -59.5 225t-154 153t-202.5 53q-190 0 -321 -121t-131 -303z" />
<glyph unicode="q" horiz-adv-x="1382" d="M47 547q0 158 76.5 284.5t202 194.5t272.5 68q158 0 269.5 -71.5t174.5 -186.5v168q0 28 22 49.5t54 21.5h193q25 0 43 -18.5t18 -44.5t-18 -45t-43 -19h-133v-1220h133q25 0 43 -19t18 -45t-18 -44.5t-43 -18.5h-207q-25 0 -43.5 18.5t-18.5 44.5v563 q-68 -124 -186.5 -190t-251.5 -66q-112 0 -215 46.5t-178 124t-119.5 184t-44.5 221.5zM182 539q0 -117 56.5 -217t156 -159t217.5 -59q185 0 312 128t127 307q0 120 -60.5 217.5t-164 152t-228.5 54.5q-81 0 -156 -30t-133 -84t-92.5 -134.5t-34.5 -175.5z" />
<glyph unicode="r" horiz-adv-x="745" d="M25 63q0 26 18 45t43 19h133v821h-133q-25 0 -43 19t-18 45t18 44.5t43 18.5h193q32 0 53.5 -21.5t21.5 -49.5v-146q23 88 119.5 155.5t190.5 67.5q31 0 55 -22.5t24 -63.5q0 -32 -24 -53.5t-51 -21.5q-17 0 -30 4t-18 8l-4 4q-121 -29 -191.5 -120.5t-70.5 -235.5v-453 h133q25 0 43.5 -19t18.5 -45t-18.5 -44.5t-43.5 -18.5h-401q-25 0 -43 18.5t-18 44.5z" />
<glyph unicode="s" horiz-adv-x="860" d="M39 63q0 26 18 45t43 19h1h14t111.5 -1t271.5 -3q74 0 125 44.5t51 117.5q0 31 -8 56t-19 43t-33 33t-38.5 23.5t-47.5 18t-48 13.5t-52 11q-59 13 -87 19.5t-74.5 23t-80.5 37.5q-60 38 -93.5 98t-33.5 130q0 112 56 184q45 58 124 88.5t160 30.5q154 0 244 -109v55 q0 22 16 38t39 16t39.5 -16t16.5 -38v-190q0 -23 -17.5 -40t-42.5 -17q-20 0 -35 12t-20 31l-2 8q-2 7 -6.5 16.5t-11 22t-19 26.5t-27.5 25q-65 49 -151 49q-87 0 -149 -49t-62 -133q0 -39 15 -69.5t36 -49t57 -34t62.5 -22.5t67.5 -16q162 -31 243 -80q64 -36 98.5 -98.5 t34.5 -136.5q0 -21 -4.5 -46.5t-16 -61t-35 -68t-56.5 -61t-87 -45.5t-120 -17q-376 4 -405 4h-1q-25 0 -43 18.5t-18 44.5z" />
<glyph unicode="t" horiz-adv-x="657" d="M10 1012q0 26 18.5 44.5t43.5 18.5h149l2 330q0 26 20 45.5t48 19.5t47.5 -19.5t19.5 -45.5v-330h177q25 0 43 -18.5t18 -44.5t-18 -45t-43 -19h-177v-702q0 -51 34 -85t85 -34h78q25 0 43 -19t18 -45t-18 -44.5t-43 -18.5h-111q-93 2 -157 67t-64 160v721h-151 q-25 0 -43.5 19t-18.5 45z" />
<glyph unicode="u" horiz-adv-x="1320" d="M10 1016q0 23 20 41t46 18h186q30 0 51 -21t21 -53v-471v-36.5v-39t1 -35t2.5 -38t5 -34t8.5 -36.5t12.5 -32.5t17.5 -34.5q80 -140 254 -140q74 0 146 28t116 79q56 64 70 128.5t14 172.5v436h-133q-25 0 -43.5 19t-18.5 45t18.5 44.5t43.5 18.5h207q25 0 43 -18.5 t18 -44.5v-885h133q25 0 43.5 -19t18.5 -45t-18.5 -44.5t-43.5 -18.5h-192q-32 0 -54 22t-22 50v110q-54 -101 -148.5 -156t-211.5 -55q-197 0 -322 146q-64 75 -82 157t-18 207v467h-123q-26 0 -46 21t-20 47z" />
<glyph unicode="v" horiz-adv-x="1200" d="M-16 1012q0 25 17 44t40 19h182q37 0 56 -49l264 -715l59 -164q35 94 62 164l260 715q19 49 57 49h176q23 0 41.5 -19t18.5 -44q0 -24 -18.5 -44t-41.5 -20h-119l-352 -923q-7 -18 -29 -36t-59 -18q-35 0 -56 18t-28 36l-354 923h-119q-23 0 -40 20t-17 44z" />
<glyph unicode="w" horiz-adv-x="1773" d="M0 1012q0 25 17 44t40 19h174q40 0 56 -49l241 -715l45 -137q22 67 45 137l205 611q18 55 72 55q56 0 74 -55l186 -607q10 -31 20 -67t15 -56l4 -20q18 69 43 139l248 715q16 49 55 49h174q23 0 41 -19t17 -44q0 -24 -17.5 -44t-40.5 -20h-121l-321 -921q-21 -56 -80 -56 q-31 0 -51 16t-27 38l-221 716l-254 -716q-17 -54 -78 -54q-31 0 -51 16t-27 38l-307 923h-119q-23 0 -40 20t-17 44z" />
<glyph unicode="x" horiz-adv-x="1191" d="M20 59q0 26 19.5 47t44.5 21h115l305 412l-307 409h-97q-25 0 -44 21t-19 47q0 23 19 41t44 18h99q49 0 72.5 -13.5t52.5 -53.5l272 -371l266 371q29 40 52.5 53.5t72.5 13.5h94q25 0 44.5 -18t19.5 -41q0 -26 -19.5 -47t-44.5 -21h-94l-301 -409l307 -412h115 q25 0 44 -21t19 -47q0 -23 -19 -41t-44 -18h-115q-49 0 -72.5 13.5t-52.5 54.5l-272 374l-272 -374q-29 -41 -52.5 -54.5t-72.5 -13.5h-115q-25 0 -44.5 18t-19.5 41z" />
<glyph unicode="y" horiz-adv-x="1189" d="M-16 1012q0 25 17 44t40 19h172q36 0 55 -49l271 -698l59 -158q34 88 61 158l265 698q19 49 57 49h166q23 0 41 -19t18 -44q0 -24 -18 -44t-41 -20h-109l-510 -1298q-19 -49 -59 -49h-176q-23 0 -40.5 19t-16.5 44q0 24 18 44t41 20h119l112 272l-376 948h-109 q-23 0 -40 20t-17 44z" />
<glyph unicode="z" horiz-adv-x="931" d="M29 76q0 24 22 53l647 819h-503v-145q0 -27 -17.5 -44.5t-44.5 -17.5q-24 0 -41.5 18t-17.5 44v205q0 27 17.5 47t41.5 20h678q32 0 54 -22.5t22 -53.5q0 -22 -23 -53l-641 -819h625q24 0 41.5 -18.5t17.5 -45.5t-17.5 -45t-41.5 -18h-744q-32 0 -53.5 22.5t-21.5 53.5z " />
<glyph unicode="{" horiz-adv-x="614" d="M123 604q0 23 13.5 40t33.5 22q25 3 44 21.5t19 47.5v557q0 70 48 120t114 50h43q24 0 42 -16t18 -41q0 -26 -18.5 -47t-41.5 -21q-32 0 -45.5 -15.5t-13.5 -53.5v-529q0 -116 -117 -135q117 -15 117 -133v-528q0 -38 13.5 -54t45.5 -16q23 0 41.5 -21t18.5 -47 q0 -25 -18 -41t-42 -16h-43q-66 0 -114 50t-48 120v557q0 29 -19 48t-44 22q-20 5 -33.5 21t-13.5 38z" />
<glyph unicode="|" horiz-adv-x="604" d="M231 -287v1870q0 27 19.5 45.5t50.5 18.5t51.5 -21.5t20.5 -50.5v-1870q0 -27 -20 -45t-52 -18q-31 0 -50.5 21t-19.5 50z" />
<glyph unicode="}" horiz-adv-x="614" d="M111 -195q0 26 18 47t41 21q32 0 45.5 16t13.5 54v528q0 118 117 133q-117 19 -117 135v529q0 38 -13.5 53.5t-45.5 15.5q-23 0 -41 21t-18 47q0 25 17.5 41t41.5 16h43q66 0 114 -50t48 -120v-557q0 -29 19 -47.5t44 -21.5q20 -5 33.5 -22t13.5 -40q0 -22 -13.5 -38 t-33.5 -21q-25 -3 -44 -22t-19 -48v-557q0 -70 -48 -120t-114 -50h-43q-24 0 -41.5 16t-17.5 41z" />
<glyph unicode="~" horiz-adv-x="1325" d="M115 639q0 25 39 82q51 74 124.5 111.5t159.5 33.5q59 -3 130 -30t125.5 -57t119.5 -56t113 -29q30 -1 49 2.5t41 22.5t33 33t45 59q18 24 45.5 30.5t50.5 -7.5q24 -17 20 -50q0 -25 -39 -82q-50 -72 -112 -100.5t-150 -23.5q-59 3 -129 29t-124 56t-119 56t-115 29 q-55 3 -94 -28t-97 -108q-18 -24 -45.5 -30t-50.5 8q-24 17 -20 49z" />
<glyph unicode="&#xa2;" d="M88 758q0 136 69 247.5t186 173.5t255 62v195q0 27 19 45t51 18q31 0 51 -21.5t20 -50.5v-186h285q25 0 43 -18.5t18 -44.5t-18 -45t-43 -19h-285v-713h285q25 0 43 -18.5t18 -44.5t-18 -45t-43 -19h-285v-213q0 -27 -19.5 -45t-51.5 -18q-31 0 -50.5 21.5t-19.5 50.5 v204q-138 0 -255 62t-186 174t-69 248zM236 758q0 -153 103 -255t259 -102v713q-156 0 -259 -101.5t-103 -254.5z" />
<glyph unicode="&#xa3;" d="M0 735q0 24 16.5 41t38.5 17h119q-72 111 -72 227q0 86 28 162.5t75 132.5t108 97.5t128 62t134 20.5q129 0 223 -47t134 -100v53q0 26 19 43.5t46 17.5q26 0 44 -17.5t18 -43.5v-273q0 -28 -21.5 -48.5t-50.5 -20.5q-23 0 -41.5 14.5t-23.5 36.5q-1 3 -2.5 19.5t-4 29.5 t-10.5 34t-20 40q-83 133 -275 133q-68 0 -131 -22t-114.5 -64t-82 -110t-30.5 -152q0 -109 90 -225h463q22 0 38.5 -17t16.5 -41q0 -23 -16.5 -40t-38.5 -17h-361q76 -85 116 -155t40 -154q0 -40 -5 -70.5t-31.5 -84t-74.5 -110.5h211q160 0 258.5 97t98.5 258 q0 22 16.5 38.5t42.5 16.5q20 0 34.5 -16t14.5 -39q0 -202 -131.5 -330.5t-333.5 -128.5h-571q-22 0 -36.5 15.5t-14.5 37.5q0 21 15 36t36 15h135q63 5 107 49t62 103.5t18 128.5q0 27 -10 54.5t-32 59t-40.5 54.5t-53.5 63t-53 62h-207q-22 0 -38.5 17t-16.5 40z" />
<glyph unicode="&#xa5;" d="M-25 1399q0 26 17.5 44.5t40.5 18.5h133q25 0 55 -39l391 -753l371 755q25 37 53 37h131q23 0 40.5 -18.5t17.5 -44.5t-17.5 -45t-40.5 -19h-77l-222 -436h209q26 0 46 -20t20 -48q0 -27 -19.5 -47t-46.5 -20h-276l-68 -135h344q26 0 46 -20t20 -48q0 -27 -19.5 -47 t-46.5 -20h-391v-367h133q25 0 43.5 -19t18.5 -45t-18.5 -44.5t-43.5 -18.5h-413q-25 0 -43.5 18.5t-18.5 44.5t18.5 45t43.5 19h133v367h-422q-27 0 -46.5 20t-19.5 47q0 28 20 48t46 20h368l-69 133h-299q-27 0 -46.5 20t-19.5 47q0 28 20 48t46 20h227l-233 438h-78 q-23 0 -40.5 19t-17.5 45z" />
<glyph unicode="&#xa9;" horiz-adv-x="1679" d="M78 737q0 208 102 383.5t278 278t384 102.5q123 0 239 -38.5t210 -108.5t165 -163t109.5 -209t38.5 -239q0 -159 -60 -302.5t-162.5 -246t-245.5 -163t-302 -60.5q-154 0 -294 61.5t-241 164.5t-161 244.5t-60 295.5zM180 739q0 -180 89 -332.5t241 -240.5t332 -88 q133 0 254.5 52t209.5 139.5t140.5 208t52.5 253.5q0 137 -52 260.5t-140 212t-210.5 140t-258.5 51.5q-133 0 -254.5 -52.5t-210 -140.5t-141 -209t-52.5 -254zM393 743q0 195 134.5 327t326.5 132q187 0 287 -100v47q0 17 11.5 27t27.5 10q37 0 37 -37v-176q0 -47 -46 -47 q-20 0 -31.5 6.5t-14 12.5t-5.5 18q0 4 -2.5 13t-13 26.5t-27.5 31.5q-100 78 -229 78q-139 0 -226 -104t-92 -258q0 -167 85 -270t227 -103h305q14 0 26.5 -13t12.5 -32t-12.5 -33t-26.5 -14h-313q-125 0 -227 63.5t-158 168t-56 226.5z" />
<glyph unicode="&#xad;" horiz-adv-x="655" d="M61 535q0 27 19.5 47t46.5 20h401q28 0 47 -19.5t19 -47.5t-19 -48t-47 -20h-401q-26 0 -46 20t-20 48z" />
<glyph unicode="&#xae;" horiz-adv-x="1679" d="M76 739q0 156 61 297.5t164 243t244.5 161.5t296.5 60t296.5 -61t243.5 -163.5t162 -244t60 -297.5t-61 -297.5t-164 -244t-245 -162.5t-298 -60q-155 0 -296 61.5t-242.5 164.5t-161.5 245t-60 297zM182 739q0 -137 52 -259.5t140.5 -210.5t211.5 -139.5t260 -51.5 q177 0 328 90t238 242t87 329q0 135 -52.5 257t-141.5 210t-211.5 139.5t-257.5 51.5q-132 0 -253.5 -52.5t-209 -141t-139.5 -210t-52 -254.5zM420 336q0 18 13.5 32.5t33.5 14.5h63v727h-63q-20 0 -33.5 14.5t-13.5 32.5q0 16 14 30.5t33 14.5h485q147 0 229.5 -65.5 t82.5 -165.5q0 -47 -15 -92t-46 -84.5t-85.5 -63.5t-124.5 -24l205 -324h55q21 0 34 -12.5t13 -30.5q0 -17 -13.5 -33t-33.5 -16h-47q-66 0 -79.5 4.5t-28.5 31.5q-4 7 -6 11l-187 317q-24 38 -34.5 44t-47.5 6h-69q-19 0 -35.5 16t-16.5 33q0 15 17 31t35 16h198 q187 9 187 164q0 68 -45.5 106.5t-124.5 38.5h-320v-780q0 -15 -15 -27t-36 -12h-131q-19 0 -33 14.5t-14 30.5z" />
<glyph unicode="&#xb4;" horiz-adv-x="942" d="M213 1286q-11 20 -6 44t26 36l418 242q23 12 47 5t39 -30q13 -21 7 -47.5t-29 -38.5l-422 -231q-23 -12 -44.5 -6.5t-35.5 26.5z" />
<glyph unicode="&#x2000;" horiz-adv-x="850" />
<glyph unicode="&#x2001;" horiz-adv-x="1700" />
<glyph unicode="&#x2002;" horiz-adv-x="850" />
<glyph unicode="&#x2003;" horiz-adv-x="1700" />
<glyph unicode="&#x2004;" horiz-adv-x="566" />
<glyph unicode="&#x2005;" horiz-adv-x="425" />
<glyph unicode="&#x2006;" horiz-adv-x="283" />
<glyph unicode="&#x2007;" horiz-adv-x="283" />
<glyph unicode="&#x2008;" horiz-adv-x="212" />
<glyph unicode="&#x2009;" horiz-adv-x="340" />
<glyph unicode="&#x200a;" horiz-adv-x="94" />
<glyph unicode="&#x2010;" horiz-adv-x="655" d="M61 535q0 27 19.5 47t46.5 20h401q28 0 47 -19.5t19 -47.5t-19 -48t-47 -20h-401q-26 0 -46 20t-20 48z" />
<glyph unicode="&#x2011;" horiz-adv-x="655" d="M61 535q0 27 19.5 47t46.5 20h401q28 0 47 -19.5t19 -47.5t-19 -48t-47 -20h-401q-26 0 -46 20t-20 48z" />
<glyph unicode="&#x2012;" horiz-adv-x="655" d="M61 535q0 27 19.5 47t46.5 20h401q28 0 47 -19.5t19 -47.5t-19 -48t-47 -20h-401q-26 0 -46 20t-20 48z" />
<glyph unicode="&#x2013;" horiz-adv-x="1024" d="M-14 535q0 28 19.5 47.5t45.5 19.5h924q26 0 45.5 -19.5t19.5 -47.5t-19.5 -48t-45.5 -20h-924q-26 0 -45.5 20t-19.5 48z" />
<glyph unicode="&#x2014;" horiz-adv-x="2048" d="M-14 535q0 28 19.5 47.5t45.5 19.5h1944q26 0 45.5 -19.5t19.5 -47.5t-19.5 -48t-45.5 -20h-1944q-26 0 -45.5 20t-19.5 48z" />
<glyph unicode="&#x2018;" horiz-adv-x="409" d="M104 1184v231q0 19 15 33t35 14t34.5 -14t14.5 -33v-129q41 -1 66.5 -30t25.5 -72t-27 -73t-69 -30q-40 0 -67.5 30t-27.5 73z" />
<glyph unicode="&#x2019;" horiz-adv-x="409" d="M104 1360q0 43 27.5 72.5t69.5 29.5q40 0 67 -29.5t27 -72.5v-232q0 -19 -14.5 -33t-34.5 -14t-34.5 14t-14.5 33v129q-41 1 -67 30.5t-26 72.5z" />
<glyph unicode="&#x201c;" horiz-adv-x="677" d="M104 1184v231q0 19 15 33t35 14t34.5 -14t14.5 -33v-129q41 -1 66.5 -30t25.5 -72t-27 -73t-69 -30q-40 0 -67.5 30t-27.5 73zM373 1184v231q0 19 14.5 33t34.5 14t34.5 -14t14.5 -33v-129q41 -1 66.5 -30t25.5 -72t-27 -73t-69 -30q-40 0 -67 30t-27 73z" />
<glyph unicode="&#x201d;" horiz-adv-x="677" d="M104 1360q0 43 27.5 72.5t69.5 29.5q40 0 67 -29.5t27 -72.5v-232q0 -19 -14.5 -33t-34.5 -14t-34.5 14t-14.5 33v129q-41 1 -67 30.5t-26 72.5zM373 1360q0 43 27 72.5t69 29.5q40 0 67 -29.5t27 -72.5v-232q0 -19 -14.5 -33t-34.5 -14t-34.5 14t-14.5 33v129 q-41 1 -66.5 30.5t-25.5 72.5z" />
<glyph unicode="&#x2022;" horiz-adv-x="1228" d="M229 731q0 158 110.5 269.5t268.5 111.5t269.5 -111.5t111.5 -269.5t-111.5 -268.5t-269.5 -110.5t-268.5 110.5t-110.5 268.5z" />
<glyph unicode="&#x2026;" horiz-adv-x="1869" d="M225 94q0 43 27.5 73t69.5 30q40 0 67 -30t27 -73t-27 -72.5t-67 -29.5q-42 0 -69.5 29.5t-27.5 72.5zM840 94q0 43 27 73t69 30q40 0 67 -30t27 -73t-27 -72.5t-67 -29.5q-42 0 -69 29.5t-27 72.5zM1454 94q0 43 27 73t69 30q40 0 67.5 -30t27.5 -73t-27.5 -72.5 t-67.5 -29.5q-42 0 -69 29.5t-27 72.5z" />
<glyph unicode="&#x202f;" horiz-adv-x="340" />
<glyph unicode="&#x205f;" horiz-adv-x="425" />
<glyph unicode="&#x20ac;" d="M29 608q0 26 18 45t43 19h94l2 159h-96q-25 0 -43 19t-18 45t18 44.5t43 18.5h96q0 115 29 206.5t100 166.5q74 80 170.5 124t202.5 44q163 0 295 -92q48 -34 89 -78.5t42 -85.5q1 -35 -21.5 -55.5t-54.5 -22.5q-36 -1 -60.5 26t-21.5 60q1 0 -10 12t-34 28.5t-53.5 33.5 t-76 29t-94.5 12q-86 0 -163 -40t-128 -112q-38 -54 -51.5 -114.5t-13.5 -141.5h499q25 0 43.5 -18.5t18.5 -44.5t-18.5 -45t-43.5 -19h-499v-159h368q25 0 43.5 -19t18.5 -45t-18.5 -44.5t-43.5 -18.5h-370q0 -193 65 -285q51 -72 131 -115t166 -43q55 0 106.5 15.5 t85.5 38t60.5 45t38.5 37.5l12 16q-3 33 20.5 60.5t59.5 27.5q31 0 54.5 -20.5t23.5 -55.5q0 -64 -125 -172q-146 -123 -336 -123q-106 0 -205.5 45.5t-173.5 126.5q-129 137 -129 402h-94q-25 0 -43 18.5t-18 44.5z" />
<glyph unicode="&#x2122;" horiz-adv-x="886" d="M68 1356v2q0 14 10.5 24.5t23.5 10.5h236q14 0 24.5 -10.5t10.5 -24.5q0 -15 -9.5 -25t-23.5 -10h-80v-334q0 -13 -11 -24t-24 -11h-10q-13 0 -23 10.5t-10 24.5v334h-82q-13 0 -22.5 9.5t-9.5 23.5zM395 989v369q0 14 10 24.5t23 10.5h55q24 0 31 -17l98 -293l99 293 q7 17 28 17h58q13 0 21.5 -10.5t8.5 -24.5v-369q0 -14 -9.5 -24.5t-22.5 -10.5h-11q-13 0 -23.5 10.5t-10.5 24.5v289l-105 -309q0 -4 -9.5 -12.5t-21.5 -8.5q-24 0 -34 21l-107 309v-289q0 -13 -10.5 -24t-24.5 -11h-10q-13 0 -23 10.5t-10 24.5z" />
<glyph unicode="&#xe000;" horiz-adv-x="1075" d="M0 0v1075h1075v-1075h-1075z" />
</font>
</defs>
</svg>
